<svg width="386" height="524" viewBox="0 0 386 524" fill="none" xmlns="http://www.w3.org/2000/svg">
<path d="M320 374C320 444.14 264.483 501 196 501C127.517 501 72 444.14 72 374C72 303.86 127.517 247 196 247C264.483 247 320 303.86 320 374Z" fill="#ECAA00"/>
<path d="M214.568 511.301C234.655 507.921 255.722 499.538 271.678 488.375C300.598 468.26 321.371 436.078 328.331 400.65C330.682 388.341 330.578 362.041 328.032 350.351C317.132 299.794 283.181 261.627 235.62 246.215C219.399 240.98 207.593 239.526 188.596 240.201C160.5 241.312 140.325 247.692 117.685 262.882C90.0573 281.291 68.9768 311.575 60.807 344.508C57.3628 358.621 56.5593 383.025 59.0202 398.415C68.1412 454.279 112.02 499.406 168.164 510.484C179.173 512.741 203.675 513.144 214.568 511.301ZM170.205 495.576C124.166 485.858 88.8343 452.498 75.9525 406.548C73.4169 397.558 73.2086 395.459 73.135 376.859C73.0623 358.459 73.2528 356.058 75.618 347.249C87.4419 302.702 119.913 269.973 163.767 258.4C177.353 254.746 199.65 253.858 213.759 256.302C238.377 260.605 259.118 271.023 277.085 287.952C320.147 328.882 327.804 393.752 295.299 443.081C276.809 470.954 246.386 490.675 213.009 496.307C202.516 498.148 180.514 497.735 170.205 495.576Z" fill="black"/>
<path d="M213.916 472.903C223.907 470.664 234.192 466.823 241.875 462.492C250.556 457.658 261.82 448.613 262.41 446.011C263.394 441.907 261.981 438.613 258.575 437.126C254.468 435.442 252.471 436.25 245.095 442.28C238.616 447.605 224.344 454.762 215.354 457.297C206.164 459.734 188.866 460.402 179.359 458.64C152.439 453.646 130.373 436.933 118.577 412.68C108.092 391.221 107.394 366.324 116.505 343.987C122.646 328.863 136.781 312.507 151.048 304.15C192.851 279.585 247.416 295.769 268.788 339.185C275.037 351.66 276.871 360.153 276.931 375.553C277.092 390.853 275.621 398.258 270.07 410.481C266.104 419.096 266.009 420.397 268.823 423.986C271.738 427.774 276.737 427.554 280.021 423.541C282.908 420.13 287.958 407.61 290.319 397.7C292.977 387.09 292.584 363.491 289.639 352.103C277.451 304.751 231.925 272.83 183.845 278.02C171.15 279.371 161.361 282.209 149.684 288.056C107.367 309.123 85.8594 357.709 98.7388 403.058C103.404 419.64 112.966 435.302 125.514 447.252C138.563 459.601 153.195 467.743 169.912 472.077C182.025 475.129 202.226 475.549 213.916 472.903Z" fill="black"/>
<path d="M199.48 438.66C202.175 437.349 203.758 433.043 203.733 426.743C203.716 422.243 203.914 421.942 207.01 420.93C218.695 416.984 226.527 399.753 222.177 387.27C218.636 376.884 211.816 371.711 197.805 368.966C183.493 366.123 179.482 363.138 179.449 354.938C179.411 345.239 185.891 340.313 197.295 341.168C204.397 341.64 207.604 343.527 211.126 348.913C215.955 356.294 219.961 357.778 224.245 353.761C231.119 347.334 220.857 331.675 207.141 327.629C203.437 326.543 203.337 326.444 203.318 321.844C203.293 315.444 201.677 311.35 198.671 309.962C195.166 308.476 193.966 308.581 190.975 310.893C188.682 312.702 188.387 313.803 188.109 319.604L187.836 326.205L183.241 327.523C177.648 329.245 170.073 335.775 167.195 341.387C164.615 346.397 163.76 357.701 165.484 363.894C167.007 369.588 174.137 377.06 180.548 379.834C183.252 381.024 188.859 382.601 192.962 383.385C201.668 384.951 203.672 385.843 206.486 389.432C212.114 396.51 205.859 407.834 196.359 407.872C190.959 407.893 187.552 406.207 183.033 401.325C180.321 398.435 178.115 396.944 176.415 396.951C173.715 396.961 170.127 399.876 169.139 402.88C167.658 407.685 175.696 417.354 184.31 420.92L188.718 422.802L188.743 429.302C188.766 435.102 189.07 436.001 191.377 437.792C194.286 440.08 196.187 440.273 199.48 438.66Z" fill="black"/>
<path d="M332.187 474.337L300.159 512.672L265.709 476.043L271.949 368.348L320.932 367.091L322.587 431.57L332.187 474.337Z" fill="#E20000"/>
<path d="M332.187 474.337L300.159 512.672L265.709 476.043L271.949 368.348L320.932 367.091L322.587 431.57L332.187 474.337Z" fill="#E20000"/>
<path d="M323.264 499.93C358.316 462.391 356.723 464.297 356.009 460.6C354.988 455.304 352.283 454.015 342.883 454.052L334.583 454.085L334.123 438.987L333.763 423.888L330.954 421.499C327.442 418.513 325.042 418.522 321.554 421.536L318.764 423.947L318.528 440.248C318.025 464.75 319.342 469.145 326.942 469.115C328.842 469.108 330.443 469.401 330.445 469.701C330.447 470.301 298.98 503.926 297.982 504.43C297.682 504.631 289.952 496.862 280.914 487.297L264.445 469.862L268.642 469.246C276.738 468.114 276.446 470.215 276.241 418.215L276.059 372.316L297.059 372.233L318.059 372.15L318.205 383.949C318.259 397.449 319.477 402.144 323.283 403.529C327.489 405.013 331.083 403.498 332.767 399.592C334.451 395.485 334.638 366.784 333.021 362.49C330.9 357.199 330.9 357.199 297.2 357.232L265.9 357.356L263.51 359.865L261.019 362.275L261.202 408.375L261.383 454.374L252.984 454.408C242.884 454.448 239.391 456.361 239.414 462.061C239.426 465.061 241.837 468.052 264.633 492.062C295.161 524.441 293.956 523.246 298.056 523.23C301.156 523.218 303.248 521.209 323.264 499.93Z" fill="black"/>
</svg>
