<svg width="386" height="514" viewBox="0 0 386 514" fill="none" xmlns="http://www.w3.org/2000/svg">
<path d="M320 136.108C320.057 206.248 251.488 262.953 183.005 263.008C114.521 263.063 58.9589 206.248 58.9023 136.108C58.8458 65.9679 114.317 9.06333 182.8 9.00812C251.283 8.95291 319.943 65.9679 320 136.108Z" fill="#ECAA00"/>
<path d="M171.634 2.56803C151.55 5.96463 130.49 14.366 114.544 25.5428C85.6402 45.682 64.8948 77.8822 57.9652 113.316C55.6243 125.627 55.7508 151.927 58.307 163.615C69.2502 214.163 103.234 252.3 150.808 267.671C167.034 272.893 178.841 274.336 197.838 273.645C225.933 272.51 246.102 266.113 268.729 250.904C296.341 232.471 317.395 202.169 325.537 169.23C328.969 155.113 329.752 130.709 327.278 115.321C318.109 59.4643 274.192 14.375 218.038 3.3449C207.027 1.0978 182.525 0.715621 171.634 2.56803ZM216.01 18.2548C262.057 27.9335 297.418 61.2638 310.339 107.202C312.882 116.19 313.092 118.289 313.181 136.889C313.27 155.289 313.081 157.69 310.724 166.501C298.938 211.058 266.495 243.815 222.65 255.426C209.068 259.091 186.772 259.998 172.66 257.566C148.039 253.284 127.289 242.884 109.307 225.97C66.2103 185.077 58.4983 120.213 90.9614 70.8567C109.427 42.9676 139.833 23.2212 173.206 17.5606C183.697 15.7102 205.699 16.1044 216.01 18.2548Z" fill="black"/>
<path d="M172.319 40.9651C162.329 43.2132 152.048 47.0627 144.368 51.3997C135.692 56.2414 124.435 65.2957 123.848 67.8985C122.867 72.0033 124.283 75.2965 127.69 76.7801C131.798 78.4604 133.795 77.6508 141.166 71.6153C147.64 66.2841 161.906 59.1154 170.894 56.5722C180.082 54.128 197.379 53.4448 206.887 55.1991C233.812 60.1697 255.892 76.8637 267.709 101.107C278.212 122.557 278.932 147.454 269.839 169.798C263.712 184.927 249.59 201.295 235.331 209.664C193.548 234.265 138.97 218.128 117.561 174.73C111.301 162.26 109.46 153.769 109.386 138.369C109.213 123.07 110.677 115.662 116.218 103.436C120.177 94.8165 120.271 93.516 117.453 89.9295C114.535 86.1435 109.536 86.3676 106.255 90.3834C103.372 93.7973 98.332 106.322 95.9796 116.233C93.3306 126.846 93.7441 150.444 96.6989 161.83C108.927 209.172 154.481 241.053 202.556 235.822C215.25 234.461 225.036 231.614 236.708 225.758C279.007 204.654 300.473 156.05 287.555 110.712C282.876 94.1341 273.3 78.48 260.743 66.5402C247.683 54.2029 233.044 46.0732 216.323 41.7535C204.208 38.7118 184.006 38.3089 172.319 40.9651Z" fill="black"/>
<path d="M186.783 75.1959C184.09 76.5089 182.51 80.8166 182.541 87.1165C182.562 91.6164 182.364 91.9174 179.269 92.9323C167.587 96.8885 159.77 114.126 164.13 126.605C167.68 136.989 174.505 142.156 188.519 144.888C202.832 147.72 206.847 150.7 206.886 158.9C206.933 168.6 200.456 173.531 189.052 172.686C181.95 172.22 178.741 170.336 175.215 164.953C170.379 157.576 166.372 156.095 162.091 160.116C155.222 166.549 165.498 182.2 179.217 186.234C182.922 187.316 183.023 187.415 183.045 192.015C183.076 198.415 184.696 202.507 187.702 203.893C191.209 205.376 192.409 205.27 195.398 202.956C197.689 201.145 197.984 200.044 198.256 194.242L198.524 187.641L203.118 186.319C208.71 184.592 216.278 178.055 219.151 172.441C221.727 167.429 222.573 156.125 220.843 149.933C219.316 144.24 212.18 136.775 205.766 134.005C203.061 132.818 197.453 131.245 193.349 130.465C184.642 128.907 182.637 128.016 179.82 124.43C174.186 117.357 180.432 106.027 189.931 105.981C195.331 105.955 198.74 107.639 203.263 112.517C205.977 115.404 208.184 116.894 209.884 116.885C212.584 116.872 216.17 113.955 217.156 110.95C218.633 106.143 210.586 96.4817 201.969 92.9231L197.56 91.0443L197.528 84.5444C197.501 78.7445 197.196 77.8459 194.888 76.057C191.977 73.771 190.076 73.5801 186.783 75.1959Z" fill="black"/>
<path d="M259.089 158.233L292.058 120.707L325.588 158.18L316.675 265.687L267.675 265.726L267.623 201.226L259.089 158.233Z" fill="#00AE26"/>
<path d="M259.089 158.233L292.058 120.707L325.588 158.18L316.675 265.687L267.675 265.726L267.623 201.226L259.089 158.233Z" fill="#00AE26"/>
<path d="M266.262 130.608C231.242 168.177 232.833 166.269 233.551 169.966C234.576 175.261 237.283 176.548 246.682 176.503L254.982 176.463L255.455 191.561L255.828 206.659L258.639 209.045C262.153 212.029 264.553 212.017 268.039 209L270.827 206.587L271.049 190.286C271.531 165.783 270.21 161.389 262.61 161.426C260.71 161.435 259.109 161.143 259.107 160.843C259.104 160.243 290.543 126.591 291.541 126.086C291.84 125.885 299.577 133.648 308.623 143.204L325.107 160.625L320.91 161.245C312.815 162.384 313.105 160.283 313.355 212.282L313.576 258.182L292.576 258.283L271.576 258.384L271.42 246.584C271.355 233.085 270.132 228.39 266.326 227.009C262.118 225.529 258.526 227.046 256.844 230.954C255.164 235.062 255.002 263.764 256.623 268.056C258.748 273.346 258.748 273.346 292.448 273.284L323.748 273.133L326.136 270.622L328.624 268.21L328.403 222.11L328.181 176.111L336.581 176.07C346.681 176.022 350.172 174.105 350.145 168.405C350.13 165.405 347.716 162.417 324.9 138.426C294.344 106.073 295.55 107.267 291.45 107.286C288.35 107.301 286.26 109.311 266.262 130.608Z" fill="black"/>
</svg>
